<svg viewBox="0 0 436.19 106.58" xmlns="http://www.w3.org/2000/svg">
  <defs></defs>
  <g id="Layer_2" data-name="Layer 2">
    <g id="Layer_1-2" data-name="Layer 1">
      <path style="fill:#f04b38;" d="M50.86,5.72a5.22,5.22,0,0,1,5.22,5.22l0,31.18V50.2l7.62-2.69,26-9.17a5.23,5.23,0,0,1,3.48,9.86L55.86,61.37,54.17,62l-1.05,1.45L27.7,98.63a5.23,5.23,0,0,1-8.48-6.12L38.06,66.43l4.42-6.13-7.09-2.59L9.15,48.12a5.14,5.14,0,0,1-2.94-2.7A5.23,5.23,0,0,1,10.94,38a5.34,5.34,0,0,1,1.8.32L38,47.53l7.68,2.81V42.15l0-31.2a5.22,5.22,0,0,1,5.22-5.23h0m0-5.72h0A10.94,10.94,0,0,0,39.92,11l0,31.21L14.7,32.94A10.94,10.94,0,0,0,7.19,53.5l26.23,9.58L14.59,89.17A10.94,10.94,0,1,0,32.33,102L57.76,66.76,95.07,53.59A10.94,10.94,0,1,0,87.78,33l-26,9.17,0-31.18A10.94,10.94,0,0,0,50.86,0Z"></path>
      <path style="fill:#f04b38;" d="M69.26,76.87A5.18,5.18,0,0,1,73.48,79l9.91,13.54A5.23,5.23,0,0,1,75,98.73l-9.9-13.54a5.23,5.23,0,0,1,4.21-8.32m0-5.71a10.82,10.82,0,0,0-6.45,2.11,11,11,0,0,0-2.38,15.29l9.91,13.54A10.94,10.94,0,0,0,88,89.18L78.1,75.64a10.93,10.93,0,0,0-8.84-4.48Z"></path>
      <path style="fill:#fff;" d="M128.47,78,135,70.4c4.31,3.28,8.86,5.1,13.88,5.1,3.41,0,5.27-1.11,5.27-3.17v-.11c0-1.88-1.44-3-7.66-4.4-9.28-2-16-4.57-16-13.31v-.12c0-7.85,6.41-13.48,16.58-13.48,7.18,0,12.8,1.93,17.53,5.63l-5.8,8.09a21.68,21.68,0,0,0-12-4.22c-3.05,0-4.61,1.29-4.61,2.93v.12c0,2.17,1.5,2.93,8,4.51,9.81,2.23,15.74,5.22,15.74,13.19v.12c0,8.73-7,13.72-17.3,13.72C140.91,85,133.79,82.71,128.47,78Z"></path>
      <path style="fill:#fff;" d="M169.16,63.07V63c0-12.37,9.64-22.16,22.92-22.16,8.74,0,14.3,3.52,18.19,8.39l-8.5,6.91c-2.63-3-5.56-5-9.81-5-6.46,0-10.83,5.34-10.83,11.73V63c0,6.63,4.37,11.85,10.83,11.85,4.61,0,7.3-2,10.11-5.16l8.5,6.27c-4.19,5.4-9.57,9.21-19,9.21C179.1,85.12,169.16,75.73,169.16,63.07Z"></path>
      <path style="fill:#fff;" d="M215.12,41.61h11.61V84.29H215.12Z"></path>
      <path style="fill:#fff;" d="M232.3,63.07V63c0-12.37,9.93-22.16,23.34-22.16,7.66,0,12.92,2.29,17.53,6.1L266.29,55c-3.17-2.58-6.17-4.1-10.71-4.1-6.47,0-11.37,5.33-11.37,12v.12c0,7.1,5,12.2,12,12.2a13,13,0,0,0,7.42-1.94V68h-8.73V59.44h19.75v19a29.26,29.26,0,0,1-18.85,6.63C242.23,85.12,232.3,76,232.3,63.07Z"></path>
      <path style="fill:#fff;" d="M280.47,41.61h20.47c6.46,0,10.95,1.59,13.88,4.58,2.57,2.4,3.83,5.68,3.83,9.85v.17c0,6.63-3.53,10.85-9,13.13l10.47,15H306.68l-8.85-13.07H292V84.29H280.47ZM300.4,62.19c4.25,0,6.64-2,6.64-5.27V56.8c0-3.52-2.51-5.34-6.76-5.34H292V62.19Z"></path>
      <path style="fill:#fff;" d="M322.31,63.07V63c0-12.25,10-22.16,23.45-22.16s23.34,9.85,23.34,22.05V63c0,12.26-10,22.17-23.46,22.17S322.31,75.27,322.31,63.07Z"></path>
      <path style="fill:#3D3D3D;" d="M357.19,63.07V63c0-6.39-4.66-11.9-11.55-11.9s-11.42,5.4-11.42,11.79V63c0,6.39,4.66,11.91,11.54,11.91S357.19,69.46,357.19,63.07Z"></path>
      <path style="fill:#fff;" d="M368.87,41.61h12.27L389,67.17l8.68-25.67h10l8.68,25.67,7.84-25.56h12l-14.61,43H411.47l-9-25.21-8.92,25.21H383.47Z"></path>
    </g>
  </g>
</svg>